<svg xmlns="http://www.w3.org/2000/svg" viewBox="0 0 83.899 113.611"><defs><style>.a,.b{fill:none;stroke:#e8418f;}.a{stroke-linecap:round;stroke-miterlimit:10;stroke-width:4px;}.b{stroke-width:6px;}</style></defs><g transform="translate(-185 -3113)"><g transform="translate(0 133)"><g transform="translate(185 2980)"><path class="a" d="M45.2,77.7H33.4a3.9,3.9,0,0,1-3.9-3.9h0a27.744,27.744,0,0,0-6.3-17.5h0a23.471,23.471,0,1,1,41.5-15,22.873,22.873,0,0,1-5.4,14.9l-.1.1A27.658,27.658,0,0,0,53,73.8V84.3a11.7,11.7,0,0,1-23.4,0"/><path class="a" d="M45.2,77.7H33.4a3.9,3.9,0,0,1-3.9-3.9h0a27.744,27.744,0,0,0-6.3-17.5h0a23.471,23.471,0,1,1,41.5-15,22.873,22.873,0,0,1-5.4,14.9l-.1.1A27.658,27.658,0,0,0,53,73.8V84.3a11.7,11.7,0,0,1-23.4,0"/><line class="a" y2="7.2" transform="translate(41.9 2)"/><line class="a" x2="3.7" y2="6.2" transform="translate(19.2 8.2)"/><line class="a" x2="6.3" y2="3.6" transform="translate(5.3 24.8)"/><line class="a" x2="7.2" transform="translate(2 46.2)"/><line class="a" y1="3.5" x2="6.3" transform="translate(8.8 62)"/><line class="a" x1="3.6" y2="6.2" transform="translate(61.1 8.5)"/><line class="a" x1="6.3" y2="3.5" transform="translate(72.3 25.1)"/><line class="a" x1="7.1" transform="translate(74.8 46.4)"/><line class="a" x1="6.3" y1="3.5" transform="translate(68.8 62.2)"/></g></g><path class="b" d="M806,1488.211h30" transform="translate(-593 1735.4)"/></g></svg>