<svg xmlns="http://www.w3.org/2000/svg" viewBox="0 0 95.982 105.74"><defs><style>.a,.d{fill:none;stroke:#e8418f;}.a{stroke-width:6px;}.b{fill:#fff;}.c{fill:#e8418f;}.d{stroke-linecap:round;stroke-miterlimit:10;stroke-width:4px;}</style></defs><g transform="translate(-693.194 -2008.714)"><path class="a" d="M806,1488.211h25.51" transform="translate(-86.5 623.242)"/><g transform="translate(693.194 2008.714)"><g transform="translate(47.415)"><circle class="b" cx="6.606" cy="6.606" r="6.606" transform="translate(1.651 1.651)"/><path class="c" d="M65.257,3.3A4.954,4.954,0,1,1,60.3,8.257,4.969,4.969,0,0,1,65.257,3.3m0-3.3a8.257,8.257,0,1,0,8.257,8.257A8.282,8.282,0,0,0,65.257,0Z" transform="translate(-57)"/></g><g transform="translate(7.833 65.976)"><path class="b" d="M17.6,95.112a6.286,6.286,0,0,1-1.734-.248,6.892,6.892,0,0,1-4.046-3.055,6.711,6.711,0,0,1-.661-5.037A6.544,6.544,0,0,1,17.513,81.9a6.285,6.285,0,0,1,1.734.248,6.5,6.5,0,0,1,4.624,8.092A6.379,6.379,0,0,1,17.6,95.112Z" transform="translate(-9.391 -80.249)"/><path class="c" d="M17.268,83.2h0a7.227,7.227,0,0,1,1.321.165,4.96,4.96,0,0,1-1.321,9.744,7.227,7.227,0,0,1-1.321-.165,4.884,4.884,0,0,1-2.973-2.312,5.06,5.06,0,0,1-.5-3.8A4.955,4.955,0,0,1,17.268,83.2m0-3.3a8.182,8.182,0,0,0-7.927,6.11,8.35,8.35,0,0,0,5.78,10.156,9.52,9.52,0,0,0,2.147.248A8.182,8.182,0,0,0,25.2,90.3a8.35,8.35,0,0,0-5.78-10.156,9.52,9.52,0,0,0-2.147-.248Z" transform="translate(-9.064 -79.9)"/></g><g transform="translate(30.901 37.158)"><circle class="b" cx="6.606" cy="6.606" r="6.606" transform="translate(1.651 1.651)"/><path class="c" d="M45.257,48.3A4.954,4.954,0,1,1,40.3,53.257,4.969,4.969,0,0,1,45.257,48.3m0-3.3a8.257,8.257,0,1,0,8.257,8.257A8.282,8.282,0,0,0,45.257,45Z" transform="translate(-37 -45)"/></g><path class="d" d="M6.129,64.168A36.721,36.721,0,0,1,2,47.158,37.108,37.108,0,0,1,39.158,10" transform="translate(0 -1.743)"/><path class="d" d="M81.91,55A37.108,37.108,0,0,1,44.752,92.158,37.76,37.76,0,0,1,34.1,90.589" transform="translate(-5.594 -9.585)"/><path class="d" d="M57.3,65.382A20.845,20.845,0,1,1,57.382,35.9" transform="translate(-3.444 -5.187)"/><g transform="translate(47.415)"><path class="b" d="M6.606,0A6.606,6.606,0,1,1,0,6.606,6.606,6.606,0,0,1,6.606,0Z" transform="translate(1.651 1.651)"/><path class="c" d="M65.257,3.3A4.954,4.954,0,1,1,60.3,8.257,4.969,4.969,0,0,1,65.257,3.3m0-3.3a8.257,8.257,0,1,0,8.257,8.257A8.282,8.282,0,0,0,65.257,0Z" transform="translate(-57)"/></g><g transform="translate(79.468 53.421)"><path class="b" d="M6.606,0A6.606,6.606,0,1,1,0,6.606,6.606,6.606,0,0,1,6.606,0Z" transform="translate(1.651 1.651)"/><path class="c" d="M65.257,3.3A4.954,4.954,0,1,1,60.3,8.257,4.969,4.969,0,0,1,65.257,3.3m0-3.3a8.257,8.257,0,1,0,8.257,8.257A8.282,8.282,0,0,0,65.257,0Z" transform="translate(-57)"/></g></g></g></svg>