<svg xmlns="http://www.w3.org/2000/svg" viewBox="0 0 64.1 119.611"><defs><style>.a,.d{fill:none;stroke:#e8418f;}.a{stroke-linecap:round;stroke-miterlimit:10;stroke-width:4px;}.b{fill:#fff;}.c{fill:#e8418f;}.d{stroke-width:6px;}</style></defs><g transform="translate(-607.95 -3107)"><g transform="translate(0 138)"><g transform="translate(607.95 2968.975)"><line class="a" y1="6.3" x2="3.6" transform="translate(10.8 93.8)"/><line class="a" y1="7.2" transform="translate(32.2 99.7)"/><line class="a" x1="3.5" y1="6.3" transform="translate(48 93.8)"/><path class="a" d="M26.9,86.8a8.315,8.315,0,0,1-5.4-5.1l-1.1-4.5A1.928,1.928,0,0,0,17.5,76l-5.3,3.3a6.332,6.332,0,0,1-7.9-.7A7.642,7.642,0,0,1,2,73.2c0-5.8,4.2-15.1,10.4-19.1a6.42,6.42,0,0,0,2.8-4.5C16.3,41,18.7,16,27,5.1,30.1,1,34.3,1,37,5.1,44.6,16.6,47.8,41,48.9,49.6a6.113,6.113,0,0,0,2.8,4.5c6.3,4,10.4,13.3,10.4,19.1a7.877,7.877,0,0,1-2.3,5.5,6.332,6.332,0,0,1-7.9.7l-5.3-3.3a1.928,1.928,0,0,0-2.9,1.2l-1.1,4.5A8.46,8.46,0,0,1,36.9,87"/></g><g transform="translate(631.743 3001.135)"><path class="b" d="M6.606,0A6.606,6.606,0,1,1,0,6.606,6.606,6.606,0,0,1,6.606,0Z" transform="translate(1.651 1.651)"/><path class="c" d="M65.257,3.3A4.954,4.954,0,1,1,60.3,8.257,4.969,4.969,0,0,1,65.257,3.3m0-3.3a8.257,8.257,0,1,0,8.257,8.257A8.282,8.282,0,0,0,65.257,0Z" transform="translate(-57)"/></g></g><path class="d" d="M806,1488.211h30" transform="translate(-181 1735.4)"/></g></svg>