<svg xmlns="http://www.w3.org/2000/svg" viewBox="0 0 85.72 125.611"><defs><style>.a,.b{fill:none;stroke:#e8418f;}.a{stroke-linecap:round;stroke-miterlimit:10;stroke-width:4px;}.b{stroke-width:6px;}</style></defs><g transform="translate(-1010.928 -3101)"><g transform="translate(1011.038 3101)"><line class="a" x1="3.5" y2="6.2" transform="translate(60.9 8.9)"/><line class="a" y2="7.2" transform="translate(43.1 2)"/><line class="a" x2="3.5" y2="6.3" transform="translate(23.8 8.8)"/><path class="a" d="M48.1,73.8A12.666,12.666,0,1,0,30,62.5a12.615,12.615,0,0,0,3.1,8.2l.6.6L64.8,97.7c1.5.9,5.6-2.1,4.4-5.7L62.3,70.7a4.1,4.1,0,0,1,1.4-4.4L81.9,53a3.922,3.922,0,0,0-2.3-7.1H57.2a3.872,3.872,0,0,1-3.7-2.7L46.6,21.9a3.954,3.954,0,0,0-7.5,0L32.2,43.2a3.872,3.872,0,0,1-3.7,2.7H5.9A3.922,3.922,0,0,0,3.6,53L21.7,66.2a3.8,3.8,0,0,1,1.4,4.4L16.2,91.9a3.92,3.92,0,0,0,6,4.4l11.1-8.1"/></g><path class="b" d="M806,1488.211h30" transform="translate(230 1735.4)"/></g></svg>