<svg xmlns="http://www.w3.org/2000/svg" viewBox="0 0 86.122 114.792"><defs><style>.a,.b{fill:none;stroke:#e8418f;}.a{stroke-width:6px;}.b{stroke-linecap:round;stroke-miterlimit:10;stroke-width:4px;}.c{fill:#fff;}.d{fill:#e8418f;}</style></defs><g transform="translate(-692.3 -1140.43)"><g transform="translate(-167.592 -124.769)"><path class="a" d="M806,1488.211h25.866" transform="translate(83.913 -111.22)"/><g transform="translate(859.892 1265.198)"><line class="b" y2="82.538" transform="translate(42.704 16.645)"/><path class="b" d="M66.754,48.958V62.537L49.5,75.477" transform="translate(-6.796 -6.49)"/><path class="b" d="M29.5,39.436V52.378L46.754,65.319" transform="translate(-4.05 -4.959)"/><path class="b" d="M10,69.125v4.9L44.077,99.736" transform="translate(-1.373 -9.18)"/><path class="b" d="M84.008,78.968v4.752L49.5,110.895" transform="translate(-6.796 -10.418)"/><ellipse class="c" cx="6.772" cy="6.772" rx="6.772" ry="6.772" transform="translate(70.887 53.589)"/><path class="d" d="M8.465,38.386a5.079,5.079,0,1,1-5.079,5.079,5.094,5.094,0,0,1,5.079-5.079m0-3.386a8.465,8.465,0,1,0,8.465,8.465A8.489,8.489,0,0,0,8.465,35Z" transform="translate(69.194 16.896)"/><ellipse class="c" cx="6.772" cy="6.772" rx="6.772" ry="6.772" transform="translate(52.258 26.975)"/><path class="d" d="M8.465,38.386a5.079,5.079,0,1,1-5.079,5.079,5.094,5.094,0,0,1,5.079-5.079m0-3.386a8.465,8.465,0,1,0,8.465,8.465A8.489,8.489,0,0,0,8.465,35Z" transform="translate(50.565 -9.718)"/><ellipse class="c" cx="6.772" cy="6.772" rx="6.772" ry="6.772" transform="translate(36.29 1.693)"/><path class="d" d="M8.465,38.386a5.079,5.079,0,1,1-5.079,5.079,5.094,5.094,0,0,1,5.079-5.079m0-3.386a8.465,8.465,0,1,0,8.465,8.465A8.489,8.489,0,0,0,8.465,35Z" transform="translate(34.597 -35)"/><ellipse class="c" cx="6.772" cy="6.772" rx="6.772" ry="6.772" transform="translate(18.991 20.322)"/><path class="d" d="M8.465,38.386a5.079,5.079,0,1,1-5.079,5.079,5.094,5.094,0,0,1,5.079-5.079m0-3.386a8.465,8.465,0,1,0,8.465,8.465A8.489,8.489,0,0,0,8.465,35Z" transform="translate(17.298 -16.371)"/><ellipse class="c" cx="6.772" cy="6.772" rx="6.772" ry="6.772" transform="translate(1.693 46.935)"/><path class="d" d="M8.465,38.386a5.079,5.079,0,1,1-5.079,5.079,5.094,5.094,0,0,1,5.079-5.079m0-3.386a8.465,8.465,0,1,0,8.465,8.465A8.489,8.489,0,0,0,8.465,35Z" transform="translate(0 10.242)"/></g></g></g></svg>